# xmcd
#
# Track frame offsets:
#	150
#	20682
#	39572
#	60920
#	77890
#	95255
#	115950
#	132337
#	156617
#	176037
#	198545
#	220550
#	236982
#	257222
#	276247
#	297937
#	318297
#
# Disc length: 4433 seconds
#
# Revision: 3
# Processed by: cddbd v1.5.1PL0 Copyright (c) Steve Scherf et al.
# Submitted via: dBpowerAMP V4.0
#
DISCID=00114f11
DTITLE=Gloria Gaynor - Never can Say Goodbye
DYEAR=1900
DGENRE=Disco
TTITLE0=I'll Be There
TTITLE1=Never Can Say Goodbye
TTITLE2=Mighty High
TTITLE3=I Will Survive
TTITLE4=Strive
TTITLE5=The First, The Last, My Everything
TTITLE6=I Say A Little Prayer
TTITLE7=Oh Happy Day
TTITLE8=Remember
TTITLE9=I Am What I Am
TTITLE10=Try A Little Tenderness
TTITLE11=Reach Out I'll Be There
TTITLE12=Do It Yourself (If You Want)
TTITLE13=Wonderful Day
TTITLE14=How High The Moon
TTITLE15=I Choose Joy
TTITLE16=I Will Always Love You
EXTD=
EXTT0=
EXTT1=
EXTT2=
EXTT3=
EXTT4=
EXTT5=
EXTT6=
EXTT7=
EXTT8=
EXTT9=
EXTT10=
EXTT11=
EXTT12=
EXTT13=
EXTT14=
EXTT15=
EXTT16=
PLAYORDER=
